<svg xmlns="http://www.w3.org/2000/svg" version="1.1" xmlns:xlink="http://www.w3.org/1999/xlink" xmlns:svgjs="http://svgjs.com/svgjs" width="1440" height="560" preserveAspectRatio="none" viewBox="0 0 1440 560"><g mask="url(&quot;#SvgjsMask1010&quot;)" fill="none"><rect width="1440" height="560" x="0" y="0" fill="rgba(193, 248, 207, 1)"></rect><path d="M-84.24 550.81L-84.24 550.81" stroke="rgba(72, 143, 177, 1)" stroke-width="1.5"></path><path d="M-84.24 550.81L-48.21 687.88" stroke="rgba(72, 143, 177, 1)" stroke-width="1.5"></path><path d="M-84.24 550.81L70.32 559.03" stroke="rgba(72, 143, 177, 1)" stroke-width="1.5"></path><path d="M-84.24 550.81L93.69 396.55" stroke="rgba(72, 143, 177, 1)" stroke-width="1.5"></path><path d="M-48.21 687.88L-48.21 687.88" stroke="rgba(72, 143, 177, 1)" stroke-width="1.5"></path><path d="M-48.21 687.88L70.32 559.03" stroke="rgba(72, 143, 177, 1)" stroke-width="1.5"></path><path d="M-48.21 687.88L230.84 689.32" stroke="rgba(72, 143, 177, 1)" stroke-width="1.5"></path><path d="M-48.21 687.88L93.69 396.55" stroke="rgba(72, 143, 177, 1)" stroke-width="1.5"></path><path d="M-48.21 687.88L257.86 545.61" stroke="rgba(72, 143, 177, 1)" stroke-width="1.5"></path><path d="M93.69 396.55L93.69 396.55" stroke="rgba(72, 143, 177, 1)" stroke-width="1.5"></path><path d="M93.69 396.55L238.02 358.79" stroke="rgba(72, 143, 177, 1)" stroke-width="1.5"></path><path d="M93.69 396.55L70.32 559.03" stroke="rgba(72, 143, 177, 1)" stroke-width="1.5"></path><path d="M93.69 396.55L257.86 545.61" stroke="rgba(72, 143, 177, 1)" stroke-width="1.5"></path><path d="M93.69 396.55L338.87 510.04" stroke="rgba(72, 143, 177, 1)" stroke-width="1.5"></path><path d="M70.32 559.03L70.32 559.03" stroke="rgba(72, 143, 177, 1)" stroke-width="1.5"></path><path d="M238.02 358.79L238.02 358.79" stroke="rgba(72, 143, 177, 1)" stroke-width="1.5"></path><path d="M238.02 358.79L376.35 377.96" stroke="rgba(72, 143, 177, 1)" stroke-width="1.5"></path><path d="M257.86 545.61L257.86 545.61" stroke="rgba(72, 143, 177, 1)" stroke-width="1.5"></path><path d="M257.86 545.61L338.87 510.04" stroke="rgba(72, 143, 177, 1)" stroke-width="1.5"></path><path d="M257.86 545.61L230.84 689.32" stroke="rgba(72, 143, 177, 1)" stroke-width="1.5"></path><path d="M230.84 689.32L230.84 689.32" stroke="rgba(72, 143, 177, 1)" stroke-width="1.5"></path><path d="M230.84 689.32L363.38 660.79" stroke="rgba(72, 143, 177, 1)" stroke-width="1.5"></path><path d="M230.84 689.32L70.32 559.03" stroke="rgba(72, 143, 177, 1)" stroke-width="1.5"></path><path d="M376.35 377.96L376.35 377.96" stroke="rgba(72, 143, 177, 1)" stroke-width="1.5"></path><path d="M376.35 377.96L338.87 510.04" stroke="rgba(72, 143, 177, 1)" stroke-width="1.5"></path><path d="M376.35 377.96L532.77 348.97" stroke="rgba(72, 143, 177, 1)" stroke-width="1.5"></path><path d="M376.35 377.96L507.88 500.06" stroke="rgba(72, 143, 177, 1)" stroke-width="1.5"></path><path d="M338.87 510.04L338.87 510.04" stroke="rgba(72, 143, 177, 1)" stroke-width="1.5"></path><path d="M363.38 660.79L363.38 660.79" stroke="rgba(72, 143, 177, 1)" stroke-width="1.5"></path><path d="M363.38 660.79L505.44 682.54" stroke="rgba(72, 143, 177, 1)" stroke-width="1.5"></path><path d="M363.38 660.79L338.87 510.04" stroke="rgba(72, 143, 177, 1)" stroke-width="1.5"></path><path d="M363.38 660.79L257.86 545.61" stroke="rgba(72, 143, 177, 1)" stroke-width="1.5"></path><path d="M363.38 660.79L507.88 500.06" stroke="rgba(72, 143, 177, 1)" stroke-width="1.5"></path><path d="M363.38 660.79L641.65 646.74" stroke="rgba(72, 143, 177, 1)" stroke-width="1.5"></path><path d="M532.77 348.97L532.77 348.97" stroke="rgba(72, 143, 177, 1)" stroke-width="1.5"></path><path d="M532.77 348.97L641.02 372.96" stroke="rgba(72, 143, 177, 1)" stroke-width="1.5"></path><path d="M532.77 348.97L507.88 500.06" stroke="rgba(72, 143, 177, 1)" stroke-width="1.5"></path><path d="M507.88 500.06L507.88 500.06" stroke="rgba(72, 143, 177, 1)" stroke-width="1.5"></path><path d="M507.88 500.06L338.87 510.04" stroke="rgba(72, 143, 177, 1)" stroke-width="1.5"></path><path d="M507.88 500.06L505.44 682.54" stroke="rgba(72, 143, 177, 1)" stroke-width="1.5"></path><path d="M505.44 682.54L505.44 682.54" stroke="rgba(72, 143, 177, 1)" stroke-width="1.5"></path><path d="M505.44 682.54L641.65 646.74" stroke="rgba(72, 143, 177, 1)" stroke-width="1.5"></path><path d="M705.15 223.41L705.15 223.41" stroke="rgba(72, 143, 177, 1)" stroke-width="1.5"></path><path d="M705.15 223.41L819.92 240.79" stroke="rgba(72, 143, 177, 1)" stroke-width="1.5"></path><path d="M705.15 223.41L790.01 359.61" stroke="rgba(72, 143, 177, 1)" stroke-width="1.5"></path><path d="M705.15 223.41L641.02 372.96" stroke="rgba(72, 143, 177, 1)" stroke-width="1.5"></path><path d="M705.15 223.41L532.77 348.97" stroke="rgba(72, 143, 177, 1)" stroke-width="1.5"></path><path d="M641.02 372.96L641.02 372.96" stroke="rgba(72, 143, 177, 1)" stroke-width="1.5"></path><path d="M641.02 372.96L696.64 493.83" stroke="rgba(72, 143, 177, 1)" stroke-width="1.5"></path><path d="M641.02 372.96L790.01 359.61" stroke="rgba(72, 143, 177, 1)" stroke-width="1.5"></path><path d="M696.64 493.83L696.64 493.83" stroke="rgba(72, 143, 177, 1)" stroke-width="1.5"></path><path d="M696.64 493.83L854.38 519.51" stroke="rgba(72, 143, 177, 1)" stroke-width="1.5"></path><path d="M641.65 646.74L641.65 646.74" stroke="rgba(72, 143, 177, 1)" stroke-width="1.5"></path><path d="M641.65 646.74L696.64 493.83" stroke="rgba(72, 143, 177, 1)" stroke-width="1.5"></path><path d="M641.65 646.74L822 664.57" stroke="rgba(72, 143, 177, 1)" stroke-width="1.5"></path><path d="M819.92 240.79L819.92 240.79" stroke="rgba(72, 143, 177, 1)" stroke-width="1.5"></path><path d="M819.92 240.79L790.01 359.61" stroke="rgba(72, 143, 177, 1)" stroke-width="1.5"></path><path d="M819.92 240.79L988.33 216.13" stroke="rgba(72, 143, 177, 1)" stroke-width="1.5"></path><path d="M790.01 359.61L790.01 359.61" stroke="rgba(72, 143, 177, 1)" stroke-width="1.5"></path><path d="M790.01 359.61L696.64 493.83" stroke="rgba(72, 143, 177, 1)" stroke-width="1.5"></path><path d="M790.01 359.61L854.38 519.51" stroke="rgba(72, 143, 177, 1)" stroke-width="1.5"></path><path d="M854.38 519.51L854.38 519.51" stroke="rgba(72, 143, 177, 1)" stroke-width="1.5"></path><path d="M854.38 519.51L983.13 491.8" stroke="rgba(72, 143, 177, 1)" stroke-width="1.5"></path><path d="M854.38 519.51L822 664.57" stroke="rgba(72, 143, 177, 1)" stroke-width="1.5"></path><path d="M854.38 519.51L959.83 397.2" stroke="rgba(72, 143, 177, 1)" stroke-width="1.5"></path><path d="M822 664.57L822 664.57" stroke="rgba(72, 143, 177, 1)" stroke-width="1.5"></path><path d="M822 664.57L696.64 493.83" stroke="rgba(72, 143, 177, 1)" stroke-width="1.5"></path><path d="M822 664.57L983.13 491.8" stroke="rgba(72, 143, 177, 1)" stroke-width="1.5"></path><path d="M822 664.57L1089.73 554.78" stroke="rgba(72, 143, 177, 1)" stroke-width="1.5"></path><path d="M970.05 -97.21L970.05 -97.21" stroke="rgba(72, 143, 177, 1)" stroke-width="1.5"></path><path d="M970.05 -97.21L1102.89 -107.84" stroke="rgba(72, 143, 177, 1)" stroke-width="1.5"></path><path d="M1000 65.48L1000 65.48" stroke="rgba(72, 143, 177, 1)" stroke-width="1.5"></path><path d="M1000 65.48L988.33 216.13" stroke="rgba(72, 143, 177, 1)" stroke-width="1.5"></path><path d="M1000 65.48L970.05 -97.21" stroke="rgba(72, 143, 177, 1)" stroke-width="1.5"></path><path d="M988.33 216.13L988.33 216.13" stroke="rgba(72, 143, 177, 1)" stroke-width="1.5"></path><path d="M988.33 216.13L1100.17 204.63" stroke="rgba(72, 143, 177, 1)" stroke-width="1.5"></path><path d="M988.33 216.13L959.83 397.2" stroke="rgba(72, 143, 177, 1)" stroke-width="1.5"></path><path d="M988.33 216.13L1151.35 357.91" stroke="rgba(72, 143, 177, 1)" stroke-width="1.5"></path><path d="M959.83 397.2L959.83 397.2" stroke="rgba(72, 143, 177, 1)" stroke-width="1.5"></path><path d="M959.83 397.2L983.13 491.8" stroke="rgba(72, 143, 177, 1)" stroke-width="1.5"></path><path d="M959.83 397.2L790.01 359.61" stroke="rgba(72, 143, 177, 1)" stroke-width="1.5"></path><path d="M983.13 491.8L983.13 491.8" stroke="rgba(72, 143, 177, 1)" stroke-width="1.5"></path><path d="M983.13 491.8L1089.73 554.78" stroke="rgba(72, 143, 177, 1)" stroke-width="1.5"></path><path d="M1102.89 -107.84L1102.89 -107.84" stroke="rgba(72, 143, 177, 1)" stroke-width="1.5"></path><path d="M1102.89 -107.84L1249.98 -106.62" stroke="rgba(72, 143, 177, 1)" stroke-width="1.5"></path><path d="M1102.89 -107.84L1000 65.48" stroke="rgba(72, 143, 177, 1)" stroke-width="1.5"></path><path d="M1100.17 204.63L1100.17 204.63" stroke="rgba(72, 143, 177, 1)" stroke-width="1.5"></path><path d="M1100.17 204.63L1151.35 357.91" stroke="rgba(72, 143, 177, 1)" stroke-width="1.5"></path><path d="M1100.17 204.63L1000 65.48" stroke="rgba(72, 143, 177, 1)" stroke-width="1.5"></path><path d="M1100.17 204.63L1285.86 206.43" stroke="rgba(72, 143, 177, 1)" stroke-width="1.5"></path><path d="M1100.17 204.63L959.83 397.2" stroke="rgba(72, 143, 177, 1)" stroke-width="1.5"></path><path d="M1151.35 357.91L1151.35 357.91" stroke="rgba(72, 143, 177, 1)" stroke-width="1.5"></path><path d="M1151.35 357.91L1272.39 404.12" stroke="rgba(72, 143, 177, 1)" stroke-width="1.5"></path><path d="M1089.73 554.78L1089.73 554.78" stroke="rgba(72, 143, 177, 1)" stroke-width="1.5"></path><path d="M1089.73 554.78L1118.8 671.43" stroke="rgba(72, 143, 177, 1)" stroke-width="1.5"></path><path d="M1118.8 671.43L1118.8 671.43" stroke="rgba(72, 143, 177, 1)" stroke-width="1.5"></path><path d="M1118.8 671.43L1238.22 685.88" stroke="rgba(72, 143, 177, 1)" stroke-width="1.5"></path><path d="M1249.98 -106.62L1249.98 -106.62" stroke="rgba(72, 143, 177, 1)" stroke-width="1.5"></path><path d="M1249.98 -106.62L1406.24 -100.27" stroke="rgba(72, 143, 177, 1)" stroke-width="1.5"></path><path d="M1249.98 -106.62L1401.66 62.47" stroke="rgba(72, 143, 177, 1)" stroke-width="1.5"></path><path d="M1249.98 -106.62L970.05 -97.21" stroke="rgba(72, 143, 177, 1)" stroke-width="1.5"></path><path d="M1285.86 206.43L1285.86 206.43" stroke="rgba(72, 143, 177, 1)" stroke-width="1.5"></path><path d="M1285.86 206.43L1430.06 189.47" stroke="rgba(72, 143, 177, 1)" stroke-width="1.5"></path><path d="M1285.86 206.43L1401.66 62.47" stroke="rgba(72, 143, 177, 1)" stroke-width="1.5"></path><path d="M1285.86 206.43L1272.39 404.12" stroke="rgba(72, 143, 177, 1)" stroke-width="1.5"></path><path d="M1285.86 206.43L1419.76 354.01" stroke="rgba(72, 143, 177, 1)" stroke-width="1.5"></path><path d="M1272.39 404.12L1272.39 404.12" stroke="rgba(72, 143, 177, 1)" stroke-width="1.5"></path><path d="M1272.39 404.12L1275.29 505.87" stroke="rgba(72, 143, 177, 1)" stroke-width="1.5"></path><path d="M1272.39 404.12L1419.76 354.01" stroke="rgba(72, 143, 177, 1)" stroke-width="1.5"></path><path d="M1272.39 404.12L1441.06 489.18" stroke="rgba(72, 143, 177, 1)" stroke-width="1.5"></path><path d="M1272.39 404.12L1089.73 554.78" stroke="rgba(72, 143, 177, 1)" stroke-width="1.5"></path><path d="M1275.29 505.87L1275.29 505.87" stroke="rgba(72, 143, 177, 1)" stroke-width="1.5"></path><path d="M1238.22 685.88L1238.22 685.88" stroke="rgba(72, 143, 177, 1)" stroke-width="1.5"></path><path d="M1238.22 685.88L1275.29 505.87" stroke="rgba(72, 143, 177, 1)" stroke-width="1.5"></path><path d="M1238.22 685.88L1089.73 554.78" stroke="rgba(72, 143, 177, 1)" stroke-width="1.5"></path><path d="M1238.22 685.88L1458.17 674.66" stroke="rgba(72, 143, 177, 1)" stroke-width="1.5"></path><path d="M1238.22 685.88L1441.06 489.18" stroke="rgba(72, 143, 177, 1)" stroke-width="1.5"></path><path d="M1238.22 685.88L1272.39 404.12" stroke="rgba(72, 143, 177, 1)" stroke-width="1.5"></path><path d="M1406.24 -100.27L1406.24 -100.27" stroke="rgba(72, 143, 177, 1)" stroke-width="1.5"></path><path d="M1406.24 -100.27L1401.66 62.47" stroke="rgba(72, 143, 177, 1)" stroke-width="1.5"></path><path d="M1406.24 -100.27L1548.59 50.78" stroke="rgba(72, 143, 177, 1)" stroke-width="1.5"></path><path d="M1406.24 -100.27L1430.06 189.47" stroke="rgba(72, 143, 177, 1)" stroke-width="1.5"></path><path d="M1406.24 -100.27L1102.89 -107.84" stroke="rgba(72, 143, 177, 1)" stroke-width="1.5"></path><path d="M1401.66 62.47L1401.66 62.47" stroke="rgba(72, 143, 177, 1)" stroke-width="1.5"></path><path d="M1401.66 62.47L1430.06 189.47" stroke="rgba(72, 143, 177, 1)" stroke-width="1.5"></path><path d="M1401.66 62.47L1548.59 50.78" stroke="rgba(72, 143, 177, 1)" stroke-width="1.5"></path><path d="M1430.06 189.47L1430.06 189.47" stroke="rgba(72, 143, 177, 1)" stroke-width="1.5"></path><path d="M1430.06 189.47L1419.76 354.01" stroke="rgba(72, 143, 177, 1)" stroke-width="1.5"></path><path d="M1430.06 189.47L1608.48 220.64" stroke="rgba(72, 143, 177, 1)" stroke-width="1.5"></path><path d="M1430.06 189.47L1548.59 50.78" stroke="rgba(72, 143, 177, 1)" stroke-width="1.5"></path><path d="M1430.06 189.47L1559.37 340.7" stroke="rgba(72, 143, 177, 1)" stroke-width="1.5"></path><path d="M1419.76 354.01L1419.76 354.01" stroke="rgba(72, 143, 177, 1)" stroke-width="1.5"></path><path d="M1419.76 354.01L1441.06 489.18" stroke="rgba(72, 143, 177, 1)" stroke-width="1.5"></path><path d="M1419.76 354.01L1559.37 340.7" stroke="rgba(72, 143, 177, 1)" stroke-width="1.5"></path><path d="M1419.76 354.01L1275.29 505.87" stroke="rgba(72, 143, 177, 1)" stroke-width="1.5"></path><path d="M1441.06 489.18L1441.06 489.18" stroke="rgba(72, 143, 177, 1)" stroke-width="1.5"></path><path d="M1441.06 489.18L1580.69 560.2" stroke="rgba(72, 143, 177, 1)" stroke-width="1.5"></path><path d="M1441.06 489.18L1275.29 505.87" stroke="rgba(72, 143, 177, 1)" stroke-width="1.5"></path><path d="M1441.06 489.18L1458.17 674.66" stroke="rgba(72, 143, 177, 1)" stroke-width="1.5"></path><path d="M1458.17 674.66L1458.17 674.66" stroke="rgba(72, 143, 177, 1)" stroke-width="1.5"></path><path d="M1458.17 674.66L1557.26 686.31" stroke="rgba(72, 143, 177, 1)" stroke-width="1.5"></path><path d="M1458.17 674.66L1580.69 560.2" stroke="rgba(72, 143, 177, 1)" stroke-width="1.5"></path><path d="M1548.59 50.78L1548.59 50.78" stroke="rgba(72, 143, 177, 1)" stroke-width="1.5"></path><path d="M1548.59 50.78L1608.48 220.64" stroke="rgba(72, 143, 177, 1)" stroke-width="1.5"></path><path d="M1608.48 220.64L1608.48 220.64" stroke="rgba(72, 143, 177, 1)" stroke-width="1.5"></path><path d="M1608.48 220.64L1559.37 340.7" stroke="rgba(72, 143, 177, 1)" stroke-width="1.5"></path><path d="M1559.37 340.7L1559.37 340.7" stroke="rgba(72, 143, 177, 1)" stroke-width="1.5"></path><path d="M1580.69 560.2L1580.69 560.2" stroke="rgba(72, 143, 177, 1)" stroke-width="1.5"></path><path d="M1580.69 560.2L1557.26 686.31" stroke="rgba(72, 143, 177, 1)" stroke-width="1.5"></path><path d="M1580.69 560.2L1559.37 340.7" stroke="rgba(72, 143, 177, 1)" stroke-width="1.5"></path><path d="M1580.69 560.2L1419.76 354.01" stroke="rgba(72, 143, 177, 1)" stroke-width="1.5"></path><path d="M1580.69 560.2L1275.29 505.87" stroke="rgba(72, 143, 177, 1)" stroke-width="1.5"></path><path d="M1557.26 686.31L1557.26 686.31" stroke="rgba(72, 143, 177, 1)" stroke-width="1.5"></path><path d="M1557.26 686.31L1441.06 489.18" stroke="rgba(72, 143, 177, 1)" stroke-width="1.5"></path><path d="M1557.26 686.31L1238.22 685.88" stroke="rgba(72, 143, 177, 1)" stroke-width="1.5"></path><circle r="5" cx="-84.24" cy="550.81" fill="rgba(72, 143, 177, 1)"></circle><circle r="5" cx="-48.21" cy="687.88" fill="rgba(72, 143, 177, 1)"></circle><circle r="5" cx="93.69" cy="396.55" fill="rgba(72, 143, 177, 1)"></circle><circle r="5" cx="70.32" cy="559.03" fill="rgba(72, 143, 177, 1)"></circle><circle r="5" cx="238.02" cy="358.79" fill="rgba(72, 143, 177, 1)"></circle><circle r="5" cx="257.86" cy="545.61" fill="rgba(72, 143, 177, 1)"></circle><circle r="5" cx="230.84" cy="689.32" fill="rgba(72, 143, 177, 1)"></circle><circle r="5" cx="376.35" cy="377.96" fill="rgba(72, 143, 177, 1)"></circle><circle r="5" cx="338.87" cy="510.04" fill="rgba(72, 143, 177, 1)"></circle><circle r="5" cx="363.38" cy="660.79" fill="rgba(72, 143, 177, 1)"></circle><circle r="5" cx="532.77" cy="348.97" fill="rgba(72, 143, 177, 1)"></circle><circle r="5" cx="507.88" cy="500.06" fill="rgba(72, 143, 177, 1)"></circle><circle r="5" cx="505.44" cy="682.54" fill="rgba(72, 143, 177, 1)"></circle><circle r="5" cx="705.15" cy="223.41" fill="rgba(72, 143, 177, 1)"></circle><circle r="5" cx="641.02" cy="372.96" fill="rgba(72, 143, 177, 1)"></circle><circle r="5" cx="696.64" cy="493.83" fill="rgba(72, 143, 177, 1)"></circle><circle r="5" cx="641.65" cy="646.74" fill="rgba(72, 143, 177, 1)"></circle><circle r="5" cx="819.92" cy="240.79" fill="rgba(72, 143, 177, 1)"></circle><circle r="5" cx="790.01" cy="359.61" fill="rgba(72, 143, 177, 1)"></circle><circle r="5" cx="854.38" cy="519.51" fill="rgba(72, 143, 177, 1)"></circle><circle r="5" cx="822" cy="664.57" fill="rgba(72, 143, 177, 1)"></circle><circle r="5" cx="970.05" cy="-97.21" fill="rgba(72, 143, 177, 1)"></circle><circle r="5" cx="1000" cy="65.48" fill="rgba(72, 143, 177, 1)"></circle><circle r="5" cx="988.33" cy="216.13" fill="rgba(72, 143, 177, 1)"></circle><circle r="5" cx="959.83" cy="397.2" fill="rgba(72, 143, 177, 1)"></circle><circle r="5" cx="983.13" cy="491.8" fill="rgba(72, 143, 177, 1)"></circle><circle r="5" cx="1102.89" cy="-107.84" fill="rgba(72, 143, 177, 1)"></circle><circle r="5" cx="1100.17" cy="204.63" fill="rgba(72, 143, 177, 1)"></circle><circle r="5" cx="1151.35" cy="357.91" fill="rgba(72, 143, 177, 1)"></circle><circle r="5" cx="1089.73" cy="554.78" fill="rgba(72, 143, 177, 1)"></circle><circle r="5" cx="1118.8" cy="671.43" fill="rgba(72, 143, 177, 1)"></circle><circle r="5" cx="1249.98" cy="-106.62" fill="rgba(72, 143, 177, 1)"></circle><circle r="5" cx="1285.86" cy="206.43" fill="rgba(72, 143, 177, 1)"></circle><circle r="5" cx="1272.39" cy="404.12" fill="rgba(72, 143, 177, 1)"></circle><circle r="5" cx="1275.29" cy="505.87" fill="rgba(72, 143, 177, 1)"></circle><circle r="5" cx="1238.22" cy="685.88" fill="rgba(72, 143, 177, 1)"></circle><circle r="5" cx="1406.24" cy="-100.27" fill="rgba(72, 143, 177, 1)"></circle><circle r="5" cx="1401.66" cy="62.47" fill="rgba(72, 143, 177, 1)"></circle><circle r="5" cx="1430.06" cy="189.47" fill="rgba(72, 143, 177, 1)"></circle><circle r="5" cx="1419.76" cy="354.01" fill="rgba(72, 143, 177, 1)"></circle><circle r="5" cx="1441.06" cy="489.18" fill="rgba(72, 143, 177, 1)"></circle><circle r="5" cx="1458.17" cy="674.66" fill="rgba(72, 143, 177, 1)"></circle><circle r="5" cx="1548.59" cy="50.78" fill="rgba(72, 143, 177, 1)"></circle><circle r="5" cx="1608.48" cy="220.64" fill="rgba(72, 143, 177, 1)"></circle><circle r="5" cx="1559.37" cy="340.7" fill="rgba(72, 143, 177, 1)"></circle><circle r="5" cx="1580.69" cy="560.2" fill="rgba(72, 143, 177, 1)"></circle><circle r="5" cx="1557.26" cy="686.31" fill="rgba(72, 143, 177, 1)"></circle><path d="M-52.26 505.93L-52.26 505.93" stroke="hsl(199.39999999999998, 42.2%, 63.5%)" stroke-width="1.5"></path><path d="M-52.26 505.93L101.69 535.68" stroke="hsl(199.39999999999998, 42.2%, 63.5%)" stroke-width="1.5"></path><path d="M-52.26 505.93L193.57 489.37" stroke="hsl(199.39999999999998, 42.2%, 63.5%)" stroke-width="1.5"></path><path d="M-52.26 505.93L223.75 637.79" stroke="hsl(199.39999999999998, 42.2%, 63.5%)" stroke-width="1.5"></path><path d="M-52.26 505.93L398.19 537.42" stroke="hsl(199.39999999999998, 42.2%, 63.5%)" stroke-width="1.5"></path><path d="M-52.26 505.93L394.42 672.64" stroke="hsl(199.39999999999998, 42.2%, 63.5%)" stroke-width="1.5"></path><path d="M223.75 637.79L223.75 637.79" stroke="hsl(199.39999999999998, 42.2%, 63.5%)" stroke-width="1.5"></path><path d="M223.75 637.79L193.57 489.37" stroke="hsl(199.39999999999998, 42.2%, 63.5%)" stroke-width="1.5"></path><path d="M223.75 637.79L101.69 535.68" stroke="hsl(199.39999999999998, 42.2%, 63.5%)" stroke-width="1.5"></path><path d="M223.75 637.79L394.42 672.64" stroke="hsl(199.39999999999998, 42.2%, 63.5%)" stroke-width="1.5"></path><path d="M223.75 637.79L398.19 537.42" stroke="hsl(199.39999999999998, 42.2%, 63.5%)" stroke-width="1.5"></path><path d="M394.42 672.64L394.42 672.64" stroke="hsl(199.39999999999998, 42.2%, 63.5%)" stroke-width="1.5"></path><path d="M394.42 672.64L398.19 537.42" stroke="hsl(199.39999999999998, 42.2%, 63.5%)" stroke-width="1.5"></path><path d="M641.16 373.42L641.16 373.42" stroke="hsl(199.39999999999998, 42.2%, 63.5%)" stroke-width="1.5"></path><path d="M641.16 373.42L688.04 505.74" stroke="hsl(199.39999999999998, 42.2%, 63.5%)" stroke-width="1.5"></path><path d="M641.16 373.42L811.2 406.35" stroke="hsl(199.39999999999998, 42.2%, 63.5%)" stroke-width="1.5"></path><path d="M688.04 505.74L688.04 505.74" stroke="hsl(199.39999999999998, 42.2%, 63.5%)" stroke-width="1.5"></path><path d="M688.04 505.74L811.2 406.35" stroke="hsl(199.39999999999998, 42.2%, 63.5%)" stroke-width="1.5"></path><path d="M688.04 505.74L843.62 560" stroke="hsl(199.39999999999998, 42.2%, 63.5%)" stroke-width="1.5"></path><path d="M688.04 505.74L547.45 637.75" stroke="hsl(199.39999999999998, 42.2%, 63.5%)" stroke-width="1.5"></path><path d="M688.04 505.74L681.16 703.46" stroke="hsl(199.39999999999998, 42.2%, 63.5%)" stroke-width="1.5"></path><path d="M688.04 505.74L805.42 689.61" stroke="hsl(199.39999999999998, 42.2%, 63.5%)" stroke-width="1.5"></path><path d="M681.16 703.46L681.16 703.46" stroke="hsl(199.39999999999998, 42.2%, 63.5%)" stroke-width="1.5"></path><path d="M681.16 703.46L805.42 689.61" stroke="hsl(199.39999999999998, 42.2%, 63.5%)" stroke-width="1.5"></path><path d="M681.16 703.46L547.45 637.75" stroke="hsl(199.39999999999998, 42.2%, 63.5%)" stroke-width="1.5"></path><path d="M681.16 703.46L843.62 560" stroke="hsl(199.39999999999998, 42.2%, 63.5%)" stroke-width="1.5"></path><path d="M681.16 703.46L960.09 692.17" stroke="hsl(199.39999999999998, 42.2%, 63.5%)" stroke-width="1.5"></path><path d="M681.16 703.46L394.42 672.64" stroke="hsl(199.39999999999998, 42.2%, 63.5%)" stroke-width="1.5"></path><path d="M805.42 689.61L805.42 689.61" stroke="hsl(199.39999999999998, 42.2%, 63.5%)" stroke-width="1.5"></path><path d="M805.42 689.61L843.62 560" stroke="hsl(199.39999999999998, 42.2%, 63.5%)" stroke-width="1.5"></path><path d="M805.42 689.61L960.09 692.17" stroke="hsl(199.39999999999998, 42.2%, 63.5%)" stroke-width="1.5"></path><path d="M805.42 689.61L980.01 538.91" stroke="hsl(199.39999999999998, 42.2%, 63.5%)" stroke-width="1.5"></path><path d="M1294.14 57.61L1294.14 57.61" stroke="hsl(199.39999999999998, 42.2%, 63.5%)" stroke-width="1.5"></path><path d="M1294.14 57.61L1454.36 60.79" stroke="hsl(199.39999999999998, 42.2%, 63.5%)" stroke-width="1.5"></path><path d="M1294.14 57.61L1243.7 -94.66" stroke="hsl(199.39999999999998, 42.2%, 63.5%)" stroke-width="1.5"></path><path d="M1294.14 57.61L1251.42 231.94" stroke="hsl(199.39999999999998, 42.2%, 63.5%)" stroke-width="1.5"></path><path d="M1294.14 57.61L1440.23 -73.48" stroke="hsl(199.39999999999998, 42.2%, 63.5%)" stroke-width="1.5"></path><path d="M1294.14 57.61L1398.42 226.64" stroke="hsl(199.39999999999998, 42.2%, 63.5%)" stroke-width="1.5"></path><path d="M1294.14 57.61L1538.02 109.22" stroke="hsl(199.39999999999998, 42.2%, 63.5%)" stroke-width="1.5"></path><path d="M1563.66 373.88L1563.66 373.88" stroke="hsl(199.39999999999998, 42.2%, 63.5%)" stroke-width="1.5"></path><path d="M1563.66 373.88L1596.65 224.54" stroke="hsl(199.39999999999998, 42.2%, 63.5%)" stroke-width="1.5"></path><path d="M1563.66 373.88L1593.95 529.1" stroke="hsl(199.39999999999998, 42.2%, 63.5%)" stroke-width="1.5"></path><path d="M1563.66 373.88L1450.33 500.28" stroke="hsl(199.39999999999998, 42.2%, 63.5%)" stroke-width="1.5"></path><path d="M1563.66 373.88L1387.77 403.32" stroke="hsl(199.39999999999998, 42.2%, 63.5%)" stroke-width="1.5"></path><path d="M1569.24 656.37L1569.24 656.37" stroke="hsl(199.39999999999998, 42.2%, 63.5%)" stroke-width="1.5"></path><path d="M1569.24 656.37L1593.95 529.1" stroke="hsl(199.39999999999998, 42.2%, 63.5%)" stroke-width="1.5"></path><path d="M1569.24 656.37L1399.31 674.34" stroke="hsl(199.39999999999998, 42.2%, 63.5%)" stroke-width="1.5"></path><path d="M1569.24 656.37L1450.33 500.28" stroke="hsl(199.39999999999998, 42.2%, 63.5%)" stroke-width="1.5"></path><path d="M1569.24 656.37L1293.05 642.77" stroke="hsl(199.39999999999998, 42.2%, 63.5%)" stroke-width="1.5"></path><path d="M1569.24 656.37L1563.66 373.88" stroke="hsl(199.39999999999998, 42.2%, 63.5%)" stroke-width="1.5"></path><path d="M101.69 535.68L101.69 535.68" stroke="hsl(199.39999999999998, 42.2%, 63.5%)" stroke-width="1.5"></path><path d="M101.69 535.68L193.57 489.37" stroke="hsl(199.39999999999998, 42.2%, 63.5%)" stroke-width="1.5"></path><path d="M101.69 535.68L398.19 537.42" stroke="hsl(199.39999999999998, 42.2%, 63.5%)" stroke-width="1.5"></path><path d="M193.57 489.37L193.57 489.37" stroke="hsl(199.39999999999998, 42.2%, 63.5%)" stroke-width="1.5"></path><path d="M193.57 489.37L398.19 537.42" stroke="hsl(199.39999999999998, 42.2%, 63.5%)" stroke-width="1.5"></path><path d="M398.19 537.42L398.19 537.42" stroke="hsl(199.39999999999998, 42.2%, 63.5%)" stroke-width="1.5"></path><path d="M398.19 537.42L547.45 637.75" stroke="hsl(199.39999999999998, 42.2%, 63.5%)" stroke-width="1.5"></path><path d="M547.45 637.75L547.45 637.75" stroke="hsl(199.39999999999998, 42.2%, 63.5%)" stroke-width="1.5"></path><path d="M547.45 637.75L394.42 672.64" stroke="hsl(199.39999999999998, 42.2%, 63.5%)" stroke-width="1.5"></path><path d="M811.2 406.35L811.2 406.35" stroke="hsl(199.39999999999998, 42.2%, 63.5%)" stroke-width="1.5"></path><path d="M811.2 406.35L948.41 356.66" stroke="hsl(199.39999999999998, 42.2%, 63.5%)" stroke-width="1.5"></path><path d="M811.2 406.35L843.62 560" stroke="hsl(199.39999999999998, 42.2%, 63.5%)" stroke-width="1.5"></path><path d="M843.62 560L843.62 560" stroke="hsl(199.39999999999998, 42.2%, 63.5%)" stroke-width="1.5"></path><path d="M843.62 560L980.01 538.91" stroke="hsl(199.39999999999998, 42.2%, 63.5%)" stroke-width="1.5"></path><path d="M948.41 356.66L948.41 356.66" stroke="hsl(199.39999999999998, 42.2%, 63.5%)" stroke-width="1.5"></path><path d="M948.41 356.66L980.01 538.91" stroke="hsl(199.39999999999998, 42.2%, 63.5%)" stroke-width="1.5"></path><path d="M948.41 356.66L1114.39 256.54" stroke="hsl(199.39999999999998, 42.2%, 63.5%)" stroke-width="1.5"></path><path d="M948.41 356.66L1158.83 341.06" stroke="hsl(199.39999999999998, 42.2%, 63.5%)" stroke-width="1.5"></path><path d="M948.41 356.66L1108.34 502.18" stroke="hsl(199.39999999999998, 42.2%, 63.5%)" stroke-width="1.5"></path><path d="M948.41 356.66L843.62 560" stroke="hsl(199.39999999999998, 42.2%, 63.5%)" stroke-width="1.5"></path><path d="M980.01 538.91L980.01 538.91" stroke="hsl(199.39999999999998, 42.2%, 63.5%)" stroke-width="1.5"></path><path d="M980.01 538.91L1108.34 502.18" stroke="hsl(199.39999999999998, 42.2%, 63.5%)" stroke-width="1.5"></path><path d="M980.01 538.91L960.09 692.17" stroke="hsl(199.39999999999998, 42.2%, 63.5%)" stroke-width="1.5"></path><path d="M980.01 538.91L1090.9 687.97" stroke="hsl(199.39999999999998, 42.2%, 63.5%)" stroke-width="1.5"></path><path d="M960.09 692.17L960.09 692.17" stroke="hsl(199.39999999999998, 42.2%, 63.5%)" stroke-width="1.5"></path><path d="M960.09 692.17L1090.9 687.97" stroke="hsl(199.39999999999998, 42.2%, 63.5%)" stroke-width="1.5"></path><path d="M960.09 692.17L843.62 560" stroke="hsl(199.39999999999998, 42.2%, 63.5%)" stroke-width="1.5"></path><path d="M1114.39 256.54L1114.39 256.54" stroke="hsl(199.39999999999998, 42.2%, 63.5%)" stroke-width="1.5"></path><path d="M1114.39 256.54L1158.83 341.06" stroke="hsl(199.39999999999998, 42.2%, 63.5%)" stroke-width="1.5"></path><path d="M1114.39 256.54L1251.42 231.94" stroke="hsl(199.39999999999998, 42.2%, 63.5%)" stroke-width="1.5"></path><path d="M1114.39 256.54L1295.33 394.47" stroke="hsl(199.39999999999998, 42.2%, 63.5%)" stroke-width="1.5"></path><path d="M1114.39 256.54L1108.34 502.18" stroke="hsl(199.39999999999998, 42.2%, 63.5%)" stroke-width="1.5"></path><path d="M1158.83 341.06L1158.83 341.06" stroke="hsl(199.39999999999998, 42.2%, 63.5%)" stroke-width="1.5"></path><path d="M1158.83 341.06L1251.42 231.94" stroke="hsl(199.39999999999998, 42.2%, 63.5%)" stroke-width="1.5"></path><path d="M1158.83 341.06L1295.33 394.47" stroke="hsl(199.39999999999998, 42.2%, 63.5%)" stroke-width="1.5"></path><path d="M1158.83 341.06L1108.34 502.18" stroke="hsl(199.39999999999998, 42.2%, 63.5%)" stroke-width="1.5"></path><path d="M1108.34 502.18L1108.34 502.18" stroke="hsl(199.39999999999998, 42.2%, 63.5%)" stroke-width="1.5"></path><path d="M1108.34 502.18L1090.9 687.97" stroke="hsl(199.39999999999998, 42.2%, 63.5%)" stroke-width="1.5"></path><path d="M1108.34 502.18L1312.12 520.48" stroke="hsl(199.39999999999998, 42.2%, 63.5%)" stroke-width="1.5"></path><path d="M1108.34 502.18L1295.33 394.47" stroke="hsl(199.39999999999998, 42.2%, 63.5%)" stroke-width="1.5"></path><path d="M1090.9 687.97L1090.9 687.97" stroke="hsl(199.39999999999998, 42.2%, 63.5%)" stroke-width="1.5"></path><path d="M1090.9 687.97L1293.05 642.77" stroke="hsl(199.39999999999998, 42.2%, 63.5%)" stroke-width="1.5"></path><path d="M1090.9 687.97L1312.12 520.48" stroke="hsl(199.39999999999998, 42.2%, 63.5%)" stroke-width="1.5"></path><path d="M1090.9 687.97L843.62 560" stroke="hsl(199.39999999999998, 42.2%, 63.5%)" stroke-width="1.5"></path><path d="M1243.7 -94.66L1243.7 -94.66" stroke="hsl(199.39999999999998, 42.2%, 63.5%)" stroke-width="1.5"></path><path d="M1243.7 -94.66L1440.23 -73.48" stroke="hsl(199.39999999999998, 42.2%, 63.5%)" stroke-width="1.5"></path><path d="M1243.7 -94.66L1454.36 60.79" stroke="hsl(199.39999999999998, 42.2%, 63.5%)" stroke-width="1.5"></path><path d="M1243.7 -94.66L1545.82 -42.38" stroke="hsl(199.39999999999998, 42.2%, 63.5%)" stroke-width="1.5"></path><path d="M1251.42 231.94L1251.42 231.94" stroke="hsl(199.39999999999998, 42.2%, 63.5%)" stroke-width="1.5"></path><path d="M1251.42 231.94L1398.42 226.64" stroke="hsl(199.39999999999998, 42.2%, 63.5%)" stroke-width="1.5"></path><path d="M1251.42 231.94L1295.33 394.47" stroke="hsl(199.39999999999998, 42.2%, 63.5%)" stroke-width="1.5"></path><path d="M1295.33 394.47L1295.33 394.47" stroke="hsl(199.39999999999998, 42.2%, 63.5%)" stroke-width="1.5"></path><path d="M1295.33 394.47L1387.77 403.32" stroke="hsl(199.39999999999998, 42.2%, 63.5%)" stroke-width="1.5"></path><path d="M1295.33 394.47L1312.12 520.48" stroke="hsl(199.39999999999998, 42.2%, 63.5%)" stroke-width="1.5"></path><path d="M1312.12 520.48L1312.12 520.48" stroke="hsl(199.39999999999998, 42.2%, 63.5%)" stroke-width="1.5"></path><path d="M1312.12 520.48L1293.05 642.77" stroke="hsl(199.39999999999998, 42.2%, 63.5%)" stroke-width="1.5"></path><path d="M1293.05 642.77L1293.05 642.77" stroke="hsl(199.39999999999998, 42.2%, 63.5%)" stroke-width="1.5"></path><path d="M1293.05 642.77L1399.31 674.34" stroke="hsl(199.39999999999998, 42.2%, 63.5%)" stroke-width="1.5"></path><path d="M1293.05 642.77L1450.33 500.28" stroke="hsl(199.39999999999998, 42.2%, 63.5%)" stroke-width="1.5"></path><path d="M1440.23 -73.48L1440.23 -73.48" stroke="hsl(199.39999999999998, 42.2%, 63.5%)" stroke-width="1.5"></path><path d="M1440.23 -73.48L1545.82 -42.38" stroke="hsl(199.39999999999998, 42.2%, 63.5%)" stroke-width="1.5"></path><path d="M1440.23 -73.48L1454.36 60.79" stroke="hsl(199.39999999999998, 42.2%, 63.5%)" stroke-width="1.5"></path><path d="M1454.36 60.79L1454.36 60.79" stroke="hsl(199.39999999999998, 42.2%, 63.5%)" stroke-width="1.5"></path><path d="M1454.36 60.79L1538.02 109.22" stroke="hsl(199.39999999999998, 42.2%, 63.5%)" stroke-width="1.5"></path><path d="M1454.36 60.79L1545.82 -42.38" stroke="hsl(199.39999999999998, 42.2%, 63.5%)" stroke-width="1.5"></path><path d="M1454.36 60.79L1398.42 226.64" stroke="hsl(199.39999999999998, 42.2%, 63.5%)" stroke-width="1.5"></path><path d="M1454.36 60.79L1596.65 224.54" stroke="hsl(199.39999999999998, 42.2%, 63.5%)" stroke-width="1.5"></path><path d="M1398.42 226.64L1398.42 226.64" stroke="hsl(199.39999999999998, 42.2%, 63.5%)" stroke-width="1.5"></path><path d="M1398.42 226.64L1387.77 403.32" stroke="hsl(199.39999999999998, 42.2%, 63.5%)" stroke-width="1.5"></path><path d="M1387.77 403.32L1387.77 403.32" stroke="hsl(199.39999999999998, 42.2%, 63.5%)" stroke-width="1.5"></path><path d="M1387.77 403.32L1450.33 500.28" stroke="hsl(199.39999999999998, 42.2%, 63.5%)" stroke-width="1.5"></path><path d="M1387.77 403.32L1312.12 520.48" stroke="hsl(199.39999999999998, 42.2%, 63.5%)" stroke-width="1.5"></path><path d="M1450.33 500.28L1450.33 500.28" stroke="hsl(199.39999999999998, 42.2%, 63.5%)" stroke-width="1.5"></path><path d="M1450.33 500.28L1312.12 520.48" stroke="hsl(199.39999999999998, 42.2%, 63.5%)" stroke-width="1.5"></path><path d="M1450.33 500.28L1593.95 529.1" stroke="hsl(199.39999999999998, 42.2%, 63.5%)" stroke-width="1.5"></path><path d="M1399.31 674.34L1399.31 674.34" stroke="hsl(199.39999999999998, 42.2%, 63.5%)" stroke-width="1.5"></path><path d="M1399.31 674.34L1312.12 520.48" stroke="hsl(199.39999999999998, 42.2%, 63.5%)" stroke-width="1.5"></path><path d="M1545.82 -42.38L1545.82 -42.38" stroke="hsl(199.39999999999998, 42.2%, 63.5%)" stroke-width="1.5"></path><path d="M1545.82 -42.38L1538.02 109.22" stroke="hsl(199.39999999999998, 42.2%, 63.5%)" stroke-width="1.5"></path><path d="M1538.02 109.22L1538.02 109.22" stroke="hsl(199.39999999999998, 42.2%, 63.5%)" stroke-width="1.5"></path><path d="M1538.02 109.22L1596.65 224.54" stroke="hsl(199.39999999999998, 42.2%, 63.5%)" stroke-width="1.5"></path><path d="M1538.02 109.22L1398.42 226.64" stroke="hsl(199.39999999999998, 42.2%, 63.5%)" stroke-width="1.5"></path><path d="M1538.02 109.22L1440.23 -73.48" stroke="hsl(199.39999999999998, 42.2%, 63.5%)" stroke-width="1.5"></path><path d="M1596.65 224.54L1596.65 224.54" stroke="hsl(199.39999999999998, 42.2%, 63.5%)" stroke-width="1.5"></path><path d="M1596.65 224.54L1398.42 226.64" stroke="hsl(199.39999999999998, 42.2%, 63.5%)" stroke-width="1.5"></path><path d="M1596.65 224.54L1545.82 -42.38" stroke="hsl(199.39999999999998, 42.2%, 63.5%)" stroke-width="1.5"></path><path d="M1593.95 529.1L1593.95 529.1" stroke="hsl(199.39999999999998, 42.2%, 63.5%)" stroke-width="1.5"></path><path d="M1593.95 529.1L1387.77 403.32" stroke="hsl(199.39999999999998, 42.2%, 63.5%)" stroke-width="1.5"></path><path d="M1593.95 529.1L1399.31 674.34" stroke="hsl(199.39999999999998, 42.2%, 63.5%)" stroke-width="1.5"></path><circle r="25" cx="-52.26" cy="505.93" fill="url(#SvgjsRadialGradient1011)"></circle><circle r="25" cx="223.75" cy="637.79" fill="url(#SvgjsRadialGradient1011)"></circle><circle r="25" cx="394.42" cy="672.64" fill="url(#SvgjsRadialGradient1011)"></circle><circle r="25" cx="641.16" cy="373.42" fill="url(#SvgjsRadialGradient1011)"></circle><circle r="25" cx="688.04" cy="505.74" fill="url(#SvgjsRadialGradient1011)"></circle><circle r="25" cx="681.16" cy="703.46" fill="url(#SvgjsRadialGradient1011)"></circle><circle r="25" cx="805.42" cy="689.61" fill="url(#SvgjsRadialGradient1011)"></circle><circle r="25" cx="1294.14" cy="57.61" fill="url(#SvgjsRadialGradient1011)"></circle><circle r="25" cx="1563.66" cy="373.88" fill="url(#SvgjsRadialGradient1011)"></circle><circle r="25" cx="1569.24" cy="656.37" fill="url(#SvgjsRadialGradient1011)"></circle><circle r="5" cx="101.69" cy="535.68" fill="#a4c7d8"></circle><circle r="5" cx="193.57" cy="489.37" fill="#a4c7d8"></circle><circle r="5" cx="398.19" cy="537.42" fill="#a4c7d8"></circle><circle r="5" cx="547.45" cy="637.75" fill="#a4c7d8"></circle><circle r="5" cx="811.2" cy="406.35" fill="#a4c7d8"></circle><circle r="5" cx="843.62" cy="560" fill="#a4c7d8"></circle><circle r="5" cx="948.41" cy="356.66" fill="#a4c7d8"></circle><circle r="5" cx="980.01" cy="538.91" fill="#a4c7d8"></circle><circle r="5" cx="960.09" cy="692.17" fill="#a4c7d8"></circle><circle r="5" cx="1114.39" cy="256.54" fill="#a4c7d8"></circle><circle r="5" cx="1158.83" cy="341.06" fill="#a4c7d8"></circle><circle r="5" cx="1108.34" cy="502.18" fill="#a4c7d8"></circle><circle r="5" cx="1090.9" cy="687.97" fill="#a4c7d8"></circle><circle r="5" cx="1243.7" cy="-94.66" fill="#a4c7d8"></circle><circle r="5" cx="1251.42" cy="231.94" fill="#a4c7d8"></circle><circle r="5" cx="1295.33" cy="394.47" fill="#a4c7d8"></circle><circle r="5" cx="1312.12" cy="520.48" fill="#a4c7d8"></circle><circle r="5" cx="1293.05" cy="642.77" fill="#a4c7d8"></circle><circle r="5" cx="1440.23" cy="-73.48" fill="#a4c7d8"></circle><circle r="5" cx="1454.36" cy="60.79" fill="#a4c7d8"></circle><circle r="5" cx="1398.42" cy="226.64" fill="#a4c7d8"></circle><circle r="5" cx="1387.77" cy="403.32" fill="#a4c7d8"></circle><circle r="5" cx="1450.33" cy="500.28" fill="#a4c7d8"></circle><circle r="5" cx="1399.31" cy="674.34" fill="#a4c7d8"></circle><circle r="5" cx="1545.82" cy="-42.38" fill="#a4c7d8"></circle><circle r="5" cx="1538.02" cy="109.22" fill="#a4c7d8"></circle><circle r="5" cx="1596.65" cy="224.54" fill="#a4c7d8"></circle><circle r="5" cx="1593.95" cy="529.1" fill="#a4c7d8"></circle></g><defs><mask id="SvgjsMask1010"><rect width="1440" height="560" fill="#ffffff"></rect></mask><radialGradient id="SvgjsRadialGradient1011"><stop stop-color="#ffffff" offset="0.1"></stop><stop stop-color="rgba(72, 143, 177, 1)" offset="0.2"></stop><stop stop-color="rgba(72, 143, 177, 0)" offset="1"></stop></radialGradient></defs></svg>