<svg xmlns="http://www.w3.org/2000/svg" xmlns:xlink="http://www.w3.org/1999/xlink" width="1080" zoomAndPan="magnify" viewBox="0 0 810 809.999993" height="1080" preserveAspectRatio="xMidYMid meet" version="1.0"><defs><filter x="0%" y="0%" width="100%" height="100%" id="id1"><feColorMatrix values="0 0 0 0 1 0 0 0 0 1 0 0 0 0 1 0 0 0 1 0" color-interpolation-filters="sRGB"/></filter><mask id="id2"><g filter="url(#id1)"><rect x="-81" width="972" fill="#000000" y="-80.999999" height="971.999992" fill-opacity="0.2078"/></g></mask><clipPath id="id3"><path d="M 0.363281 0.609375 L 432.175781 0.609375 L 432.175781 432.425781 L 0.363281 432.425781 Z M 0.363281 0.609375 " clip-rule="nonzero"/></clipPath><clipPath id="id4"><rect x="0" width="433" y="0" height="433"/></clipPath><mask id="id5"><g filter="url(#id1)"><rect x="-81" width="972" fill="#000000" y="-80.999999" height="971.999992" fill-opacity="0.5098"/></g></mask><clipPath id="id6"><path d="M 0.539062 1.152344 L 332.140625 1.152344 L 332.140625 332.753906 L 0.539062 332.753906 Z M 0.539062 1.152344 " clip-rule="nonzero"/></clipPath><clipPath id="id7"><rect x="0" width="333" y="0" height="333"/></clipPath></defs><g mask="url(#id2)"><g transform="matrix(1, 0, 0, 1, 321, 328)"><g clip-path="url(#id4)"><g clip-path="url(#id3)"><path fill="#8c52ff" d="M 432.175781 216.519531 C 432.175781 335.699219 335.449219 432.425781 216.269531 432.425781 C 96.964844 432.425781 0.363281 335.699219 0.363281 216.519531 C 0.363281 97.335938 96.964844 0.609375 216.269531 0.609375 C 335.449219 0.609375 432.175781 97.335938 432.175781 216.519531 Z M 432.175781 216.519531 " fill-opacity="1" fill-rule="nonzero"/></g><path fill="#ffffff" d="M 129.167969 156.1875 C 129.167969 144.960938 132.746094 133.484375 140.023438 121.886719 C 147.304688 110.292969 157.914062 100.667969 171.730469 93.140625 C 185.671875 85.492188 201.835938 81.792969 220.464844 81.792969 C 237.738281 81.792969 252.914062 85 266.113281 91.292969 C 279.316406 97.707031 289.433594 106.34375 296.710938 117.199219 C 303.867188 128.179688 307.445312 140.023438 307.445312 152.855469 C 307.445312 162.972656 305.347656 171.855469 301.277344 179.382812 C 297.203125 187.03125 292.269531 193.570312 286.59375 199.121094 C 280.917969 204.671875 270.800781 213.925781 256.121094 227.003906 C 252.050781 230.707031 248.839844 233.914062 246.375 236.75 C 243.90625 239.589844 242.179688 242.179688 240.945312 244.402344 C 239.710938 246.746094 238.847656 249.089844 238.109375 251.308594 C 237.492188 253.652344 236.503906 257.726562 235.148438 263.523438 C 232.925781 275.863281 225.769531 282.03125 213.925781 282.03125 C 207.757812 282.03125 202.574219 280.054688 198.378906 275.984375 C 194.1875 271.914062 192.089844 265.867188 192.089844 257.972656 C 192.089844 247.980469 193.691406 239.34375 196.777344 232.0625 C 199.859375 224.785156 203.933594 218.367188 209.113281 212.816406 C 214.296875 207.265625 221.082031 200.726562 229.839844 193.078125 C 237.492188 186.414062 242.917969 181.355469 246.375 178.023438 C 249.703125 174.695312 252.664062 170.867188 254.886719 166.675781 C 257.230469 162.480469 258.464844 158.039062 258.464844 153.101562 C 258.464844 143.601562 254.886719 135.582031 247.855469 129.042969 C 240.699219 122.503906 231.691406 119.175781 220.464844 119.175781 C 207.386719 119.175781 197.765625 122.503906 191.59375 129.042969 C 185.425781 135.582031 180.246094 145.328125 175.925781 158.160156 C 171.855469 171.609375 164.207031 178.269531 152.855469 178.269531 C 146.191406 178.269531 140.515625 175.925781 135.953125 171.238281 C 131.386719 166.796875 129.167969 161.738281 129.167969 156.1875 Z M 216.148438 351.613281 C 208.867188 351.613281 202.574219 349.269531 197.148438 344.582031 C 191.71875 339.894531 189.128906 333.355469 189.128906 324.839844 C 189.128906 317.316406 191.71875 311.023438 197.023438 305.964844 C 202.207031 300.90625 208.621094 298.316406 216.269531 298.316406 C 223.671875 298.316406 229.964844 300.90625 235.148438 305.964844 C 240.203125 311.148438 242.796875 317.4375 242.796875 324.839844 C 242.796875 333.230469 240.203125 339.648438 234.777344 344.457031 C 229.347656 349.269531 223.179688 351.613281 216.148438 351.613281 Z M 216.148438 351.613281 " fill-opacity="1" fill-rule="nonzero"/></g></g></g><g mask="url(#id5)"><g transform="matrix(1, 0, 0, 1, 28, 115)"><g clip-path="url(#id7)"><g clip-path="url(#id6)"><path fill="#8c52ff" d="M 332.140625 166.953125 C 332.140625 258.472656 257.863281 332.753906 166.339844 332.753906 C 74.726562 332.753906 0.539062 258.472656 0.539062 166.953125 C 0.539062 75.429688 74.726562 1.152344 166.339844 1.152344 C 257.863281 1.152344 332.140625 75.429688 332.140625 166.953125 Z M 332.140625 166.953125 " fill-opacity="1" fill-rule="nonzero"/></g><path fill="#5e17eb" d="M 99.453125 120.621094 C 99.453125 112 102.199219 103.191406 107.789062 94.285156 C 113.378906 85.378906 121.527344 77.988281 132.140625 72.207031 C 142.84375 66.335938 155.257812 63.492188 169.5625 63.492188 C 182.828125 63.492188 194.480469 65.957031 204.617188 70.789062 C 214.753906 75.714844 222.523438 82.347656 228.113281 90.683594 C 233.609375 99.117188 236.355469 108.210938 236.355469 118.0625 C 236.355469 125.832031 234.746094 132.65625 231.621094 138.433594 C 228.492188 144.308594 224.703125 149.328125 220.34375 153.59375 C 215.988281 157.855469 208.21875 164.960938 196.945312 175.003906 C 193.816406 177.847656 191.355469 180.3125 189.457031 182.488281 C 187.5625 184.667969 186.238281 186.660156 185.289062 188.363281 C 184.34375 190.164062 183.679688 191.964844 183.109375 193.667969 C 182.636719 195.46875 181.878906 198.597656 180.835938 203.050781 C 179.132812 212.523438 173.636719 217.261719 164.542969 217.261719 C 159.804688 217.261719 155.824219 215.746094 152.605469 212.617188 C 149.382812 209.492188 147.773438 204.847656 147.773438 198.785156 C 147.773438 191.113281 149.003906 184.480469 151.371094 178.890625 C 153.742188 173.300781 156.867188 168.371094 160.847656 164.109375 C 164.824219 159.847656 170.035156 154.824219 176.761719 148.949219 C 182.636719 143.835938 186.804688 139.949219 189.457031 137.390625 C 192.015625 134.832031 194.289062 131.898438 195.996094 128.675781 C 197.796875 125.453125 198.742188 122.042969 198.742188 118.253906 C 198.742188 110.957031 195.996094 104.800781 190.59375 99.777344 C 185.101562 94.757812 178.183594 92.199219 169.5625 92.199219 C 159.519531 92.199219 152.128906 94.757812 147.394531 99.777344 C 142.65625 104.800781 138.675781 112.285156 135.359375 122.136719 C 132.234375 132.464844 126.359375 137.582031 117.644531 137.582031 C 112.527344 137.582031 108.167969 135.78125 104.664062 132.179688 C 101.15625 128.769531 99.453125 124.886719 99.453125 120.621094 Z M 166.246094 270.695312 C 160.65625 270.695312 155.824219 268.894531 151.65625 265.296875 C 147.488281 261.695312 145.496094 256.671875 145.496094 250.136719 C 145.496094 244.355469 147.488281 239.523438 151.5625 235.640625 C 155.539062 231.757812 160.46875 229.765625 166.339844 229.765625 C 172.027344 229.765625 176.859375 231.757812 180.835938 235.640625 C 184.722656 239.621094 186.710938 244.453125 186.710938 250.136719 C 186.710938 256.578125 184.722656 261.503906 180.554688 265.199219 C 176.382812 268.894531 171.648438 270.695312 166.246094 270.695312 Z M 166.246094 270.695312 " fill-opacity="1" fill-rule="nonzero"/></g></g></g></svg>