<svg id="Layer_1" data-name="Layer 1" xmlns="http://www.w3.org/2000/svg" viewBox="0 0 595.28 348.77"><defs><style>.cls-1{fill:none;}.cls-2{fill:#704581;}.cls-3{fill:#fff;opacity:0.78;}.cls-4{font-size:45.73px;fill:#714582;font-family:Montserrat-Bold, Montserrat;font-weight:700;}</style></defs><title>Artboard 1</title><rect class="cls-1" x="16.03" y="-165.77" width="595.28" height="841.89"/><path class="cls-2" d="M271.91,88.42a8.17,8.17,0,1,1-8.17-8.17,8.17,8.17,0,0,1,8.17,8.17"/><path class="cls-2" d="M381.17,109.23a6.28,6.28,0,1,1-6.28-6.28,6.29,6.29,0,0,1,6.28,6.28"/><path class="cls-2" d="M271.91,150.48a8.17,8.17,0,1,1-8.17-8.17,8.17,8.17,0,0,1,8.17,8.17"/><path class="cls-2" d="M271.91,129.3a8.17,8.17,0,1,1-8.17-8.17,8.17,8.17,0,0,1,8.17,8.17"/><path class="cls-2" d="M271.91,109.23a8.17,8.17,0,1,1-8.17-8.17,8.17,8.17,0,0,1,8.17,8.17"/><path class="cls-2" d="M271.91,168.75a8.17,8.17,0,1,1-8.17-8.17,8.17,8.17,0,0,1,8.17,8.17"/><path class="cls-2" d="M271.91,257.08a8.17,8.17,0,1,1-8.17-8.17,8.17,8.17,0,0,1,8.17,8.17"/><path class="cls-2" d="M271.91,233.21a8.17,8.17,0,1,1-8.17-8.17,8.17,8.17,0,0,1,8.17,8.17"/><path class="cls-2" d="M271.91,209.14a8.17,8.17,0,1,1-8.17-8.17,8.17,8.17,0,0,1,8.17,8.17"/><path class="cls-2" d="M301.11,88.42A8.17,8.17,0,1,1,293,80.25a8.16,8.16,0,0,1,8.16,8.17"/><path class="cls-2" d="M301.11,150.48a8.17,8.17,0,1,1-8.16-8.17,8.16,8.16,0,0,1,8.16,8.17"/><path class="cls-2" d="M301.11,129.3a8.17,8.17,0,1,1-8.16-8.17,8.16,8.16,0,0,1,8.16,8.17"/><path class="cls-2" d="M301.11,109.23a8.17,8.17,0,1,1-8.16-8.17,8.16,8.16,0,0,1,8.16,8.17"/><path class="cls-2" d="M301.11,168.75a8.17,8.17,0,1,1-8.16-8.17,8.16,8.16,0,0,1,8.16,8.17"/><path class="cls-2" d="M301.11,257.08a8.17,8.17,0,1,1-8.16-8.17,8.16,8.16,0,0,1,8.16,8.17"/><path class="cls-2" d="M301.11,233.21A8.17,8.17,0,1,1,293,225a8.16,8.16,0,0,1,8.16,8.17"/><path class="cls-2" d="M301.11,209.14A8.17,8.17,0,1,1,293,201a8.16,8.16,0,0,1,8.16,8.17"/><path class="cls-2" d="M330.32,88.42a8.17,8.17,0,1,1-8.17-8.17,8.17,8.17,0,0,1,8.17,8.17"/><path class="cls-2" d="M330.32,150.48a8.17,8.17,0,1,1-8.17-8.17,8.17,8.17,0,0,1,8.17,8.17"/><path class="cls-2" d="M330.32,129.3a8.17,8.17,0,1,1-8.17-8.17,8.17,8.17,0,0,1,8.17,8.17"/><path class="cls-2" d="M330.32,109.23a8.17,8.17,0,1,1-8.17-8.17,8.17,8.17,0,0,1,8.17,8.17"/><path class="cls-2" d="M330.32,168.75a8.17,8.17,0,1,1-8.17-8.17,8.17,8.17,0,0,1,8.17,8.17"/><path class="cls-2" d="M330.32,257.08a8.17,8.17,0,1,1-8.17-8.17,8.17,8.17,0,0,1,8.17,8.17"/><path class="cls-2" d="M330.32,233.21a8.17,8.17,0,1,1-8.17-8.17,8.17,8.17,0,0,1,8.17,8.17"/><path class="cls-2" d="M330.32,209.14a8.17,8.17,0,1,1-8.17-8.17,8.17,8.17,0,0,1,8.17,8.17"/><path class="cls-2" d="M359.06,88.42a8.17,8.17,0,1,1-8.17-8.17,8.17,8.17,0,0,1,8.17,8.17"/><path class="cls-2" d="M359.06,150.48a8.17,8.17,0,1,1-8.17-8.17,8.17,8.17,0,0,1,8.17,8.17"/><path class="cls-2" d="M359.06,129.3a8.17,8.17,0,1,1-8.17-8.17,8.17,8.17,0,0,1,8.17,8.17"/><path class="cls-2" d="M359.06,109.23a8.17,8.17,0,1,1-8.17-8.17,8.17,8.17,0,0,1,8.17,8.17"/><path class="cls-2" d="M359.06,168.75a8.17,8.17,0,1,1-8.17-8.17,8.17,8.17,0,0,1,8.17,8.17"/><path class="cls-2" d="M359.06,257.08a8.17,8.17,0,1,1-8.17-8.17,8.17,8.17,0,0,1,8.17,8.17"/><path class="cls-2" d="M359.06,233.21a8.17,8.17,0,1,1-8.17-8.17,8.17,8.17,0,0,1,8.17,8.17"/><path class="cls-2" d="M359.06,209.14a8.17,8.17,0,1,1-8.17-8.17,8.17,8.17,0,0,1,8.17,8.17"/><path class="cls-2" d="M381.17,129.3a6.28,6.28,0,1,1-6.28-6.28,6.28,6.28,0,0,1,6.28,6.28"/><path class="cls-2" d="M381.17,150.48a6.28,6.28,0,1,1-6.28-6.29,6.28,6.28,0,0,1,6.28,6.29"/><path class="cls-2" d="M381.17,168.75a6.28,6.28,0,1,1-6.28-6.28,6.29,6.29,0,0,1,6.28,6.28"/><path class="cls-2" d="M381.17,209.14a6.28,6.28,0,1,1-6.28-6.28,6.29,6.29,0,0,1,6.28,6.28"/><path class="cls-2" d="M381.17,233.21a6.28,6.28,0,1,1-6.28-6.28,6.29,6.29,0,0,1,6.28,6.28"/><path class="cls-2" d="M243.25,109.23A6.28,6.28,0,1,1,237,103a6.29,6.29,0,0,1,6.28,6.28"/><path class="cls-2" d="M243.25,129.3A6.28,6.28,0,1,1,237,123a6.28,6.28,0,0,1,6.28,6.28"/><path class="cls-2" d="M243.25,150.48a6.28,6.28,0,1,1-6.28-6.29,6.28,6.28,0,0,1,6.28,6.29"/><path class="cls-2" d="M243.25,168.75a6.28,6.28,0,1,1-6.28-6.28,6.29,6.29,0,0,1,6.28,6.28"/><path class="cls-2" d="M243.25,209.14a6.28,6.28,0,1,1-6.28-6.28,6.29,6.29,0,0,1,6.28,6.28"/><path class="cls-2" d="M243.25,233.21a6.28,6.28,0,1,1-6.28-6.28,6.29,6.29,0,0,1,6.28,6.28"/><path class="cls-2" d="M403.23,129.3A6.29,6.29,0,1,1,397,123a6.28,6.28,0,0,1,6.28,6.28"/><path class="cls-2" d="M403.23,150.48a6.29,6.29,0,1,1-6.28-6.29,6.28,6.28,0,0,1,6.28,6.29"/><path class="cls-2" d="M403.23,168.75a6.29,6.29,0,1,1-6.28-6.28,6.29,6.29,0,0,1,6.28,6.28"/><path class="cls-2" d="M403.23,209.14a6.29,6.29,0,1,1-6.28-6.28,6.29,6.29,0,0,1,6.28,6.28"/><path class="cls-2" d="M222.16,129.3a6.29,6.29,0,1,1-6.29-6.28,6.29,6.29,0,0,1,6.29,6.28"/><path class="cls-2" d="M222.16,150.48a6.29,6.29,0,1,1-6.29-6.29,6.29,6.29,0,0,1,6.29,6.29"/><path class="cls-2" d="M222.16,168.75a6.29,6.29,0,1,1-6.29-6.28,6.29,6.29,0,0,1,6.29,6.28"/><path class="cls-2" d="M222.16,209.14a6.29,6.29,0,1,1-6.29-6.28,6.29,6.29,0,0,1,6.29,6.28"/><path class="cls-2" d="M199.72,129.3a4.83,4.83,0,1,1-4.83-4.83,4.83,4.83,0,0,1,4.83,4.83"/><path class="cls-2" d="M199.72,150.48a4.83,4.83,0,1,1-4.83-4.84,4.83,4.83,0,0,1,4.83,4.84"/><path class="cls-2" d="M199.72,168.75a4.83,4.83,0,1,1-4.83-4.83,4.84,4.84,0,0,1,4.83,4.83"/><path class="cls-2" d="M199.72,209.14a4.83,4.83,0,1,1-4.83-4.83,4.84,4.84,0,0,1,4.83,4.83"/><path class="cls-2" d="M181.22,129.3a4.83,4.83,0,1,1-4.83-4.83,4.83,4.83,0,0,1,4.83,4.83"/><path class="cls-2" d="M181.22,150.48a4.83,4.83,0,1,1-4.83-4.84,4.83,4.83,0,0,1,4.83,4.84"/><path class="cls-2" d="M181.22,168.75a4.83,4.83,0,1,1-4.83-4.83,4.84,4.84,0,0,1,4.83,4.83"/><path class="cls-2" d="M181.22,209.14a4.83,4.83,0,1,1-4.83-4.83,4.84,4.84,0,0,1,4.83,4.83"/><path class="cls-2" d="M438.9,129.3a4.84,4.84,0,1,1-4.83-4.83,4.83,4.83,0,0,1,4.83,4.83"/><path class="cls-2" d="M438.9,150.48a4.84,4.84,0,1,1-4.83-4.84,4.83,4.83,0,0,1,4.83,4.84"/><path class="cls-2" d="M438.9,168.75a4.84,4.84,0,1,1-4.83-4.83,4.84,4.84,0,0,1,4.83,4.83"/><path class="cls-2" d="M438.9,209.14a4.84,4.84,0,1,1-4.83-4.83,4.84,4.84,0,0,1,4.83,4.83"/><path class="cls-2" d="M420.61,129.3a4.83,4.83,0,1,1-4.83-4.83,4.83,4.83,0,0,1,4.83,4.83"/><path class="cls-2" d="M420.61,150.48a4.83,4.83,0,1,1-4.83-4.84,4.83,4.83,0,0,1,4.83,4.84"/><path class="cls-2" d="M420.61,168.75a4.83,4.83,0,1,1-4.83-4.83,4.84,4.84,0,0,1,4.83,4.83"/><path class="cls-2" d="M420.61,209.14a4.83,4.83,0,1,1-4.83-4.83,4.84,4.84,0,0,1,4.83,4.83"/><path class="cls-2" d="M218.77,233.21a2.9,2.9,0,1,1-2.9-2.9,2.9,2.9,0,0,1,2.9,2.9"/><path class="cls-2" d="M197.79,233.21a2.9,2.9,0,1,1-2.9-2.9,2.9,2.9,0,0,1,2.9,2.9"/><path class="cls-2" d="M179.29,233.21a2.9,2.9,0,1,1-2.9-2.9,2.9,2.9,0,0,1,2.9,2.9"/><path class="cls-2" d="M218.77,109.23a2.9,2.9,0,1,1-2.9-2.9,2.9,2.9,0,0,1,2.9,2.9"/><path class="cls-2" d="M197.79,109.23a2.9,2.9,0,1,1-2.9-2.9,2.9,2.9,0,0,1,2.9,2.9"/><path class="cls-2" d="M178.48,109.23a2.9,2.9,0,1,1-2.9-2.9,2.9,2.9,0,0,1,2.9,2.9"/><path class="cls-2" d="M437,109.23a2.9,2.9,0,1,1-2.9-2.9,2.9,2.9,0,0,1,2.9,2.9"/><path class="cls-2" d="M418.68,109.23a2.9,2.9,0,1,1-2.9-2.9,2.9,2.9,0,0,1,2.9,2.9"/><path class="cls-2" d="M399.85,109.23a2.9,2.9,0,1,1-2.9-2.9,2.9,2.9,0,0,1,2.9,2.9"/><path class="cls-2" d="M437,233.21a2.9,2.9,0,1,1-2.9-2.9,2.9,2.9,0,0,1,2.9,2.9"/><path class="cls-2" d="M418.68,233.21a2.9,2.9,0,1,1-2.9-2.9,2.9,2.9,0,0,1,2.9,2.9"/><path class="cls-2" d="M399.85,233.21a2.9,2.9,0,1,1-2.9-2.9,2.9,2.9,0,0,1,2.9,2.9"/><path class="cls-2" d="M239.87,257.08a2.9,2.9,0,1,1-2.9-2.9,2.9,2.9,0,0,1,2.9,2.9"/><path class="cls-2" d="M218.77,257.08a2.9,2.9,0,1,1-2.9-2.9,2.9,2.9,0,0,1,2.9,2.9"/><path class="cls-2" d="M197.79,257.08a2.9,2.9,0,1,1-2.9-2.9,2.9,2.9,0,0,1,2.9,2.9"/><path class="cls-2" d="M239.87,88.42a2.9,2.9,0,1,1-2.9-2.9,2.9,2.9,0,0,1,2.9,2.9"/><path class="cls-2" d="M218.77,88.42a2.9,2.9,0,1,1-2.9-2.9,2.9,2.9,0,0,1,2.9,2.9"/><path class="cls-2" d="M197.79,88.42a2.9,2.9,0,1,1-2.9-2.9,2.9,2.9,0,0,1,2.9,2.9"/><path class="cls-2" d="M418.68,257.08a2.9,2.9,0,1,1-2.9-2.9,2.9,2.9,0,0,1,2.9,2.9"/><path class="cls-2" d="M399.85,257.08a2.9,2.9,0,1,1-2.9-2.9,2.9,2.9,0,0,1,2.9,2.9"/><path class="cls-2" d="M377.79,257.08a2.9,2.9,0,1,1-2.9-2.9,2.9,2.9,0,0,1,2.9,2.9"/><path class="cls-2" d="M418.68,88.42a2.9,2.9,0,1,1-2.9-2.9,2.9,2.9,0,0,1,2.9,2.9"/><path class="cls-2" d="M399.85,88.42a2.9,2.9,0,1,1-2.9-2.9,2.9,2.9,0,0,1,2.9,2.9"/><path class="cls-2" d="M377.79,88.42a2.9,2.9,0,1,1-2.9-2.9,2.9,2.9,0,0,1,2.9,2.9"/><path class="cls-2" d="M271.91,188.77a8.17,8.17,0,1,1-8.17-8.17,8.17,8.17,0,0,1,8.17,8.17"/><path class="cls-2" d="M301.11,188.77A8.17,8.17,0,1,1,293,180.6a8.16,8.16,0,0,1,8.16,8.17"/><path class="cls-2" d="M330.32,188.77a8.17,8.17,0,1,1-8.17-8.17,8.17,8.17,0,0,1,8.17,8.17"/><path class="cls-2" d="M359.06,188.77a8.17,8.17,0,1,1-8.17-8.17,8.17,8.17,0,0,1,8.17,8.17"/><path class="cls-2" d="M381.17,188.77a6.28,6.28,0,1,1-6.28-6.28,6.28,6.28,0,0,1,6.28,6.28"/><path class="cls-2" d="M243.25,188.77a6.28,6.28,0,1,1-6.28-6.28,6.28,6.28,0,0,1,6.28,6.28"/><path class="cls-2" d="M403.23,188.77a6.29,6.29,0,1,1-6.28-6.28,6.28,6.28,0,0,1,6.28,6.28"/><path class="cls-2" d="M222.16,188.77a6.29,6.29,0,1,1-6.29-6.28,6.29,6.29,0,0,1,6.29,6.28"/><path class="cls-2" d="M199.72,188.77a4.83,4.83,0,1,1-4.83-4.83,4.83,4.83,0,0,1,4.83,4.83"/><path class="cls-2" d="M180.46,188.77a4.84,4.84,0,1,1-4.84-4.83,4.84,4.84,0,0,1,4.84,4.83"/><path class="cls-2" d="M438.9,188.77a4.84,4.84,0,1,1-4.83-4.83,4.83,4.83,0,0,1,4.83,4.83"/><path class="cls-2" d="M420.61,188.77a4.83,4.83,0,1,1-4.83-4.83,4.83,4.83,0,0,1,4.83,4.83"/><path class="cls-2" d="M165,129.3a4.84,4.84,0,1,1-4.84-4.83A4.84,4.84,0,0,1,165,129.3"/><path class="cls-2" d="M165,150.48a4.84,4.84,0,1,1-4.84-4.84,4.84,4.84,0,0,1,4.84,4.84"/><path class="cls-2" d="M165,168.75a4.84,4.84,0,1,1-4.84-4.83,4.84,4.84,0,0,1,4.84,4.83"/><path class="cls-2" d="M165,209.14a4.84,4.84,0,1,1-4.84-4.83,4.84,4.84,0,0,1,4.84,4.83"/><path class="cls-2" d="M165,188.77a4.84,4.84,0,1,1-4.84-4.83,4.84,4.84,0,0,1,4.84,4.83"/><path class="cls-2" d="M144.29,191.67a2.9,2.9,0,1,1,2.9-2.9,2.9,2.9,0,0,1-2.9,2.9"/><path class="cls-2" d="M144.29,171.65a2.9,2.9,0,1,1,2.9-2.9,2.9,2.9,0,0,1-2.9,2.9"/><path class="cls-2" d="M144.29,153.38a2.9,2.9,0,1,1,2.9-2.9,2.9,2.9,0,0,1-2.9,2.9"/><path class="cls-2" d="M129.28,191.67a2.9,2.9,0,1,1,2.9-2.9,2.9,2.9,0,0,1-2.9,2.9"/><path class="cls-2" d="M129.28,171.65a2.9,2.9,0,1,1,2.9-2.9,2.9,2.9,0,0,1-2.9,2.9"/><path class="cls-2" d="M129.28,153.38a2.9,2.9,0,1,1,2.9-2.9,2.9,2.9,0,0,1-2.9,2.9"/><path class="cls-2" d="M112.52,171.65a2.9,2.9,0,1,1,2.9-2.9,2.9,2.9,0,0,1-2.9,2.9"/><path class="cls-2" d="M446.56,129.3a4.83,4.83,0,1,0,4.83-4.83,4.83,4.83,0,0,0-4.83,4.83"/><path class="cls-2" d="M446.56,150.48a4.83,4.83,0,1,0,4.83-4.84,4.83,4.83,0,0,0-4.83,4.84"/><path class="cls-2" d="M446.56,168.75a4.83,4.83,0,1,0,4.83-4.83,4.84,4.84,0,0,0-4.83,4.83"/><path class="cls-2" d="M446.56,209.14a4.83,4.83,0,1,0,4.83-4.83,4.84,4.84,0,0,0-4.83,4.83"/><path class="cls-2" d="M446.56,188.77a4.83,4.83,0,1,0,4.83-4.83,4.83,4.83,0,0,0-4.83,4.83"/><path class="cls-2" d="M467.25,191.67a2.9,2.9,0,1,0-2.9-2.9,2.9,2.9,0,0,0,2.9,2.9"/><path class="cls-2" d="M467.25,171.65a2.9,2.9,0,1,0-2.9-2.9,2.9,2.9,0,0,0,2.9,2.9"/><path class="cls-2" d="M467.25,153.38a2.9,2.9,0,1,0-2.9-2.9,2.9,2.9,0,0,0,2.9,2.9"/><path class="cls-2" d="M482.26,191.67a2.9,2.9,0,1,0-2.9-2.9,2.9,2.9,0,0,0,2.9,2.9"/><path class="cls-2" d="M482.26,171.65a2.9,2.9,0,1,0-2.9-2.9,2.9,2.9,0,0,0,2.9,2.9"/><path class="cls-2" d="M482.26,153.38a2.9,2.9,0,1,0-2.9-2.9,2.9,2.9,0,0,0,2.9,2.9"/><path class="cls-2" d="M499,171.65a2.9,2.9,0,1,0-2.9-2.9,2.9,2.9,0,0,0,2.9,2.9"/><path class="cls-2" d="M350.07,71.6a4.83,4.83,0,1,1,4.83-4.83,4.83,4.83,0,0,1-4.83,4.83"/><path class="cls-2" d="M328.89,71.6a4.83,4.83,0,1,1,4.83-4.83,4.83,4.83,0,0,1-4.83,4.83"/><path class="cls-2" d="M310.62,71.6a4.83,4.83,0,1,1,4.83-4.83,4.84,4.84,0,0,1-4.83,4.83"/><path class="cls-2" d="M270.22,71.6a4.83,4.83,0,1,1,4.84-4.83,4.83,4.83,0,0,1-4.84,4.83"/><path class="cls-2" d="M246.15,69.67a2.9,2.9,0,1,1,2.9-2.9,2.9,2.9,0,0,1-2.9,2.9"/><path class="cls-2" d="M370.13,68.86A2.9,2.9,0,1,1,373,66a2.9,2.9,0,0,1-2.9,2.9"/><path class="cls-2" d="M290.6,70.84A4.84,4.84,0,1,1,295.43,66a4.84,4.84,0,0,1-4.83,4.84"/><path class="cls-2" d="M350.07,55.36a4.84,4.84,0,1,1,4.83-4.84,4.84,4.84,0,0,1-4.83,4.84"/><path class="cls-2" d="M328.89,55.36a4.84,4.84,0,1,1,4.83-4.84,4.84,4.84,0,0,1-4.83,4.84"/><path class="cls-2" d="M310.62,55.36a4.84,4.84,0,1,1,4.83-4.84,4.84,4.84,0,0,1-4.83,4.84"/><path class="cls-2" d="M270.22,55.36a4.84,4.84,0,1,1,4.84-4.84,4.84,4.84,0,0,1-4.84,4.84"/><path class="cls-2" d="M290.6,55.36a4.84,4.84,0,1,1,4.83-4.84,4.84,4.84,0,0,1-4.83,4.84"/><path class="cls-2" d="M287.7,34.67a2.9,2.9,0,1,1,2.9,2.9,2.9,2.9,0,0,1-2.9-2.9"/><path class="cls-2" d="M307.72,34.67a2.9,2.9,0,1,1,2.9,2.9,2.9,2.9,0,0,1-2.9-2.9"/><path class="cls-2" d="M326,34.67a2.9,2.9,0,1,1,2.9,2.9,2.9,2.9,0,0,1-2.9-2.9"/><path class="cls-2" d="M287.7,19.66a2.9,2.9,0,1,1,2.9,2.9,2.9,2.9,0,0,1-2.9-2.9"/><path class="cls-2" d="M307.72,19.66a2.9,2.9,0,1,1,2.9,2.9,2.9,2.9,0,0,1-2.9-2.9"/><path class="cls-2" d="M326,19.66a2.9,2.9,0,1,1,2.9,2.9,2.9,2.9,0,0,1-2.9-2.9"/><path class="cls-2" d="M307.72,2.9a2.9,2.9,0,1,1,2.9,2.9,2.9,2.9,0,0,1-2.9-2.9"/><path class="cls-2" d="M347.71,272.78a4.83,4.83,0,1,0,4.83,4.83,4.84,4.84,0,0,0-4.83-4.83"/><path class="cls-2" d="M326.53,272.78a4.83,4.83,0,1,0,4.83,4.83,4.83,4.83,0,0,0-4.83-4.83"/><path class="cls-2" d="M308.25,272.78a4.83,4.83,0,1,0,4.84,4.83,4.83,4.83,0,0,0-4.84-4.83"/><path class="cls-2" d="M267.86,272.78a4.83,4.83,0,1,0,4.84,4.83,4.83,4.83,0,0,0-4.84-4.83"/><path class="cls-2" d="M243.79,274.71a2.9,2.9,0,1,0,2.9,2.9,2.9,2.9,0,0,0-2.9-2.9"/><path class="cls-2" d="M367.77,275.52a2.9,2.9,0,1,0,2.9,2.9,2.9,2.9,0,0,0-2.9-2.9"/><path class="cls-2" d="M288.24,273.54a4.84,4.84,0,1,0,4.83,4.84,4.84,4.84,0,0,0-4.83-4.84"/><path class="cls-2" d="M347.71,289a4.84,4.84,0,1,0,4.83,4.84,4.84,4.84,0,0,0-4.83-4.84"/><path class="cls-2" d="M326.53,289a4.84,4.84,0,1,0,4.83,4.84,4.84,4.84,0,0,0-4.83-4.84"/><path class="cls-2" d="M308.25,289a4.84,4.84,0,1,0,4.84,4.84,4.84,4.84,0,0,0-4.84-4.84"/><path class="cls-2" d="M267.86,289a4.84,4.84,0,1,0,4.84,4.84,4.84,4.84,0,0,0-4.84-4.84"/><path class="cls-2" d="M288.24,289a4.84,4.84,0,1,0,4.83,4.84,4.84,4.84,0,0,0-4.83-4.84"/><path class="cls-2" d="M285.34,309.71a2.9,2.9,0,1,0,2.9-2.9,2.89,2.89,0,0,0-2.9,2.9"/><path class="cls-2" d="M305.35,309.71a2.91,2.91,0,1,0,2.9-2.9,2.9,2.9,0,0,0-2.9,2.9"/><path class="cls-2" d="M323.63,309.71a2.9,2.9,0,1,0,2.9-2.9,2.9,2.9,0,0,0-2.9,2.9"/><path class="cls-2" d="M285.34,324.72a2.9,2.9,0,1,0,2.9-2.9,2.9,2.9,0,0,0-2.9,2.9"/><path class="cls-2" d="M305.35,324.72a2.91,2.91,0,1,0,2.9-2.9,2.9,2.9,0,0,0-2.9,2.9"/><path class="cls-2" d="M323.63,324.72a2.9,2.9,0,1,0,2.9-2.9,2.9,2.9,0,0,0-2.9,2.9"/><path class="cls-2" d="M305.35,341.48a2.91,2.91,0,1,0,2.9-2.9,2.9,2.9,0,0,0-2.9,2.9"/><rect class="cls-3" x="146.26" y="138.03" width="319.02" height="68.32"/><text class="cls-4" transform="translate(150.53 186.7) scale(1 1.18)">ARTIBEDDED</text></svg>